<svg xmlns="http://www.w3.org/2000/svg" xmlns:svg="http://www.w3.org/2000/svg" id="svg2" width="800" height="800" version="1.1"><metadata id="metadata7"/><g id="layer1" transform="translate(0,-2357.0866)"><flowRoot id="flowRoot3009" fill="#000" fill-opacity="1" stroke="none" stroke-linecap="butt" stroke-linejoin="miter" stroke-opacity="1" stroke-width="1" font-family="Sans" font-size="72" font-style="normal" font-weight="normal" letter-spacing="0" word-spacing="0" xml:space="preserve" style="line-height:125%"><flowRegion id="flowRegion3011"><rect id="rect3013" width="6.42" height="185.124" x="197.965" y="60.573"/></flowRegion><flowPara id="flowPara3015"/></flowRoot><path id="path3017" fill="#00f" fill-opacity="1" stroke="#000" stroke-dasharray="none" stroke-linecap="round" stroke-linejoin="miter" stroke-miterlimit="4" stroke-opacity="1" stroke-width="10" d="m 254.00791,91.070368 c -5.88627,7.137028 -14.45724,13.942892 -12.69979,24.879422 0.7107,4.42266 4.60794,7.68304 6.94675,11.50338 2.60376,4.25312 7.52809,10.20968 7.43558,15.91748 -0.0461,2.84398 -1.51175,5.48417 -2.26762,8.22626 -6.527,12.53544 -5.61491,8.73805 -8.57833,23.30773 -0.90531,4.45097 -2.19402,8.90093 -2.22819,13.44291 -0.0341,4.53695 1.93963,8.92338 2.02579,13.45963 0.0872,4.59141 -1.27712,9.10739 -1.51004,13.69371 -0.25343,4.99011 0.0356,9.99301 0.0533,14.98952 0.27823,5.03273 0.55646,10.06546 0.83468,15.09819 -0.89055,4.67465 -2.60941,9.26563 -2.67165,14.02394 -0.0571,4.36705 1.18714,8.67726 2.31954,12.89533 0.97751,3.64114 3.56241,6.83884 3.98412,10.58526 0.65685,5.8355 -4.12114,21.06655 -5.35012,25.62135 -1.01338,24.58243 15.12348,0.44342 18.87802,5.85763 2.63763,3.80357 12.82603,28.67489 5.20149,37.29608 -2.18742,2.47335 -6.53803,0.92911 -9.80705,1.39367 -2.51478,5.21611 -5.02956,10.43222 -7.54434,15.64833 -2.61333,6.99334 -6.94816,13.5678 -7.84,20.98002 -0.83692,6.95584 2.10587,13.85882 2.80951,20.82941 4.33548,42.94954 -2.78044,-3.621 5.54662,39.54232 1.21122,6.27836 1.28752,12.81351 3.20932,18.912 1.752,5.55968 5.13229,10.46795 7.69843,15.70192 5.73469,14.62275 3.51761,10.12059 10.86407,24.17662 2.23967,4.28516 5.62394,8.10698 6.85755,12.78211 1.32581,5.02453 -0.66867,10.54418 0.62549,15.57695 2.94214,11.44152 8.04942,10.54155 17.76884,14.164 0.3275,5.73829 2.22489,11.60312 0.98251,17.21487 -0.57166,2.58219 -4.70647,2.91179 -5.95452,5.24351 -0.63821,1.19234 1.74002,2.75554 1.05036,3.91888 -2.22116,3.74674 -6.42046,5.96516 -8.99337,9.47966 -8.25841,11.28066 -6.74741,12.17164 -8.76144,25.6017 -2.2761,14.84028 -3.75147,13.05198 0.91955,27.5337 0.76844,2.38244 2.86411,4.23679 3.44993,6.67058 0.38778,1.61105 -1.04469,3.31602 -0.65829,4.9274 0.32988,1.37569 2.88746,1.93285 2.63722,3.32523 -0.41036,2.28343 -2.81889,3.68558 -4.22834,5.52837 -0.26484,2.77601 -0.86188,5.54022 -0.79451,8.32801 0.0772,3.19621 1.35072,6.3181 1.22568,9.51279 -0.83947,21.44676 -3.76548,1.16443 -2.29141,22.46226 0.22551,3.25823 2.86092,6.60131 1.69178,9.6509 -5.87776,15.33156 -14.82783,29.30111 -22.24175,43.95167 -15.99669,-1.14797 -31.99338,-2.29594 -47.99006,-3.44391 -1.11396,-1.47197 -5.17992,-4.58687 -3.34188,-4.41593 25.20931,2.34455 -1.80122,10.07455 23.07459,2.93448 0.41041,-0.1178 -0.63165,-0.86003 -1.04261,-0.74417 -0.89813,0.25319 -1.49722,1.11415 -2.24583,1.67122 10.89297,13.94266 -6.13507,4.08808 -5.69226,7.08501 0.29869,2.02146 2.19265,3.74497 4.04613,4.60527 1.03094,0.47852 4.10617,-1.9004 3.17003,-1.25585 -10.95514,7.54281 -20.29549,19.16854 -33.29231,21.99556 -10.34252,2.24967 -20.47293,-5.38276 -30.70939,-8.07414 12.97337,5.27368 19.93421,11.46302 34.19742,4.95036 7.31752,-3.34123 12.49984,-10.23019 19.4346,-14.30686 3.83406,-2.25389 -6.80654,5.73363 -10.0419,8.78527 -0.88911,0.83861 -1.07766,2.85498 -2.29987,2.85564 -1.33388,7.1e-4 -1.87074,-1.90193 -2.80611,-2.8529 2.08438,11.69376 11.45935,-6.20545 8.87111,-4.20339 -6.82952,5.28279 -12.28143,12.14154 -18.55634,18.07245 -0.10466,0.0989 -0.24449,-0.32848 -0.12769,-0.41271 2.51141,-1.81126 10.37373,-3.42616 7.76642,-5.09643 -2.93235,-1.87848 -6.47468,2.56671 -9.71202,3.85006 -5.00323,2.01053 -11.36111,2.0614 -15.00969,6.0316 -2.16777,2.35885 6.68779,1.15808 9.60971,-0.15562 1.21867,-0.54791 -1.39645,-3.08014 -2.72523,-2.93966 -2.25569,0.2385 -3.43836,3.23616 -5.62941,3.82298 -11.60937,3.10929 -13.63394,-2.98074 -12.00161,1.49377 -3.68527,3.39381 -1.34018,2.32912 -7.4885,1.90259 -74.206641,5.73095 -82.311442,-99.21309 -8.1048,-104.94405 l 0,0 c -1.88433,6.27953 -2.44956,7.08175 -0.39772,2.91705 1.81106,-0.40006 6.96873,-0.15997 5.43317,-1.20018 -2.4105,-1.63291 -5.8864,-1.82651 -8.67739,-0.99749 -1.29406,0.38437 -1.9381,2.84699 -1.09287,3.89957 0.75515,0.94041 21.10728,-21.16556 13.37701,-7.94539 -2.52278,4.3144 -8.17161,5.75663 -12.25741,8.63494 -2.0461,1.48069 -8.58531,5.06746 -6.1383,4.44208 3.68542,-0.94187 7.17079,-2.93188 10.0329,-5.43741 0.90854,-0.79535 1.24344,-4.36589 0.30195,-3.60984 -6.41573,5.15198 -10.78914,12.64589 -17.49402,17.41548 -4.14059,2.94545 8.94602,-16.77561 10.05528,-11.45744 1.86117,-0.34203 3.882,-0.19797 5.58352,-1.02608 1.20494,-0.58642 3.89097,-3.57124 2.68066,-2.99598 -1.97618,0.93927 -6.86254,5.42796 -5.09217,4.14216 13.07033,-9.49279 24.77948,-24.00355 43.43672,-20.76649 7.25568,1.25887 12.94127,7.0315 19.41191,10.54725 -9.23722,-3.88112 -17.81127,-13.18339 -27.71165,-11.64338 -13.36153,2.0784 -23.78147,13.09266 -34.5111,21.3222 -2.2721,1.74268 6.07746,0.19609 8.48229,-1.35831 2.06249,-1.33312 1.53277,-5.08347 3.58074,-6.43881 4.66633,-3.08818 11.60727,-0.74486 16.30248,-4.00402 3.24666,-3.44791 6.13521,-7.27216 9.73998,-10.34373 12.1961,-10.39211 22.03803,-15.06387 39.4235,-15.74775 8.11267,-0.31913 16.04718,2.52997 23.98935,4.21495 2.19893,0.46652 8.58372,1.85856 6.36594,2.22509 -12.87035,2.12709 -26.00417,2.11293 -39.00626,3.16939 -6.68878,13.36201 -14.5703,26.19083 -20.06634,40.08603 -1.08266,2.73719 6.2983,-2.98733 6.55241,-5.91986 0.42214,-4.87176 -3.63243,-9.11012 -4.83942,-13.84883 -0.81717,-3.20826 -0.83544,-6.56876 -1.19926,-9.8594 -1.43495,-12.97857 0.0836,-3.73256 -2.49895,-16.96453 0.39023,-3.27035 1.397,-6.52529 1.1707,-9.81106 -0.25351,-3.681 -3.04942,-7.10175 -2.58763,-10.76246 0.41556,-3.29418 3.40506,-5.70207 5.02989,-8.59764 1.66722,-2.97111 3.16784,-6.03393 4.84472,-8.99961 6.6472,-11.75602 3.1019,-2.58245 7.24296,-19.15017 2.84949,-10.31538 7.15168,-19.69687 3.62,-30.72362 -3.7942,-11.8464 -10.77206,-11.34204 -13.23142,-22.82664 -0.21148,-0.98754 1.94753,0.5357 2.92129,0.80355 -0.50317,4.09238 -1.00634,8.18476 -1.50951,12.27714 4.15422,-1.38052 9.34986,-1.0636 12.46267,-4.14157 5.17608,-5.11815 0.30644,-15.63835 -0.86065,-20.44925 -1.00082,-4.12549 -1.6721,-8.32639 -2.67602,-12.45112 -6.31218,-25.93426 -1.94923,-2.38847 -6.63969,-31.98193 -2.77094,-24.71082 -2.77883,-11.53309 1.33987,-39.51046 -0.37715,-7.66534 -4.23009,-14.7908 -5.47051,-22.3645 -1.2043,-7.35313 -1.23165,-14.8512 -1.84096,-22.27733 -2.50522,-30.53312 -0.6558,-14.91892 -5.33912,-45.36614 -1.71687,-6.98374 -2.78874,-14.15845 -5.15061,-20.95123 -2.53532,-7.29168 -4.24229,-15.45978 -9.4811,-21.13 -1.70274,-1.84296 -6.79625,1.41518 -6.4391,3.89878 3.2296,22.45822 11.25374,34.23748 19.43945,10.44649 1.7932,-5.21178 0.74682,-10.99795 1.12023,-16.49692 -6.35311,-9.69089 -17.80082,-23.49908 -18.82894,-36.50181 -0.0341,-0.43149 5.97019,-25.75853 5.98703,-26.90694 0.0695,-4.7437 -2.58163,-9.28221 -2.42826,-14.02394 0.1667,-5.15389 2.2468,-10.06546 3.3702,-15.09819 -0.28074,-4.99651 -0.56148,-9.99301 -0.84221,-14.98952 -1.12038,-4.56457 -2.8414,-9.02247 -3.36112,-13.69371 -0.49628,-4.46045 0.63676,-8.98147 0.34001,-13.45963 -0.29996,-4.52656 -1.61099,-8.93537 -2.12275,-13.44291 -2.45973,-21.66526 1.36561,-4.22912 -3.57878,-23.30773 -1.36561,-17.33162 -0.92925,0.43508 1.41403,-15.44932 0.42318,-2.86866 -0.52035,-5.90907 0.28595,-8.69442 1.18427,-4.09103 5.53796,-7.24445 5.5609,-11.50338 0.0483,-8.95835 -10.00764,-15.92656 -10.16384,-24.879422 0,-64.125727 90.68748,-64.125727 90.68748,0 z" opacity=".8" transform="translate(0,2357.0866)"/><path id="path3019" fill="#00f" fill-opacity="1" stroke="#000" stroke-dasharray="none" stroke-linecap="round" stroke-linejoin="miter" stroke-miterlimit="4" stroke-opacity="1" stroke-width="10" d="m 62.064783,23.039662 c 8.285374,4.70359 10.957638,8.669761 21.022664,5.085356 3.384731,-1.205387 5.503261,-4.751432 8.743941,-6.302997 2.26856,-1.086137 4.954651,-0.879217 7.408656,-1.430507 17.235776,-3.872003 5.528946,-2.085269 20.151736,-3.892198 25.74246,-2.025977 -3.31192,0.806282 16.81879,-2.52588 3.24367,-0.536913 6.61716,-0.243547 9.80948,-1.03017 2.78102,-0.685272 5.20664,-2.414117 7.91775,-3.3380076 9.49147,-3.2345032 6.05236,0.8642736 9.65953,-5.7600359 0.78695,0.1411296 2.7392,1.1277041 2.36085,0.4233887 -0.87031,-1.620143 -3.4678,-1.9571875 -4.11044,-3.68036163 -0.334,-0.89558704 1.90556,0.44250743 2.85134,0.30420008 2.38168,-0.3482878 4.70447,-1.04376473 7.00682,-1.7458188 15.41961,-4.70187845 -0.50467,-2.24868365 24.06527,-3.63682985 11.3882,0.6117051 14.44143,1.1073846 24.96702,0.6321799 2.57799,-0.1163898 5.27936,-1.5253245 7.71306,-0.6670212 2.81721,0.99356 3.9017,5.22730299 6.83408,5.7974247 3.61232,0.7023193 7.18797,-1.58163935 10.78195,-2.372459 3.48857,1.21255554 6.97714,2.4251111 10.46571,3.6376667 15.17106,2.6112593 7.79564,2.1403951 23.43777,1.5574166 4.20636,-0.15677 8.41932,-0.8076947 12.61772,-0.5052981 4.04871,0.2916146 7.95032,2.8881782 11.96305,2.2757671 8.13863,-1.2420929 11.56423,-7.0366114 16.13914,-12.5127633 0.87927,-1.4665949 0.95122,-4.6815444 2.63783,-4.3997844 2.20607,0.36854 1.90812,4.4003492 3.86366,5.4859072 54.96885,30.5143178 -28.56282,-27.1368802 32.86928,21.5465828 22.70306,17.991636 29.83934,19.624216 56.28282,32.527683 18.90275,9.160516 38.13092,-3.155115 56.95422,-0.674291 7.72607,1.01826 14.34044,6.163254 21.75757,8.553878 6.95787,2.2426 14.70226,2.120387 21.27687,5.316596 8.89542,4.324454 20.08342,18.227587 26.48707,25.417834 18.99007,12.082411 12.67366,7.484891 31.89441,22.35416 5.39816,4.17604 10.48356,8.76691 16.07066,12.68659 3.99274,2.80114 30.03365,16.32857 30.73443,24.69581 1.49751,17.88022 -4.807,35.56223 -7.2105,53.34335 -3.83517,2.89938 -13.91918,12.85617 -11.50552,8.69815 3.67321,-6.32785 11.86518,-9.19797 15.48627,-15.55579 0.96253,-1.68999 -2.74792,-4.43031 -4.53726,-3.66823 -3.96187,1.68737 -7.62252,5.26424 -8.88016,9.38273 -1.4064,4.60564 1.08781,9.56953 1.63172,14.3543 -1.72241,5.10264 -3.44482,10.20529 -5.16722,15.30793 -0.85231,4.49422 -1.70463,8.98843 -2.55694,13.48265 -0.38239,3.89489 -0.44429,7.8347 -1.14717,11.68468 -0.75099,4.11345 -2.48354,8.00966 -3.20048,12.12918 -0.54316,3.12101 -1.18587,20.51172 -2.99592,23.84157 -2.55437,4.6991 -7.16587,7.94202 -10.74881,11.91304 -6.38414,10.6718 -18.28462,15.63962 -26.34483,24.52747 -4.20221,4.6337 -7.49044,10.08555 -10.38364,15.63164 -2.22844,4.27179 -0.95131,10.80625 -4.87024,13.60913 -22.69329,16.23058 -27.52613,13.26896 -48.47436,11.31009 -30.79304,-15.5902 5.42693,-1.23499 -26.53074,-1.30001 -11.77634,-0.024 -23.3382,-7.39544 -34.92808,-5.30798 -11.88861,2.14126 -21.63034,10.85384 -31.8268,17.33121 -27.89044,17.71756 -26.4038,19.20475 -47.12443,42.75257 -2.97338,3.70083 -24.94918,31.26582 -29.70557,36.46848 -5.35162,5.85371 -9.01558,15.26816 -16.78445,16.86516 -11.53588,2.37137 -24.07847,-1.33061 -34.77098,-6.26722 -2.70243,-1.24769 4.76811,-4.72507 4.53486,-7.69247 -0.17752,-2.25853 -3.63857,-2.70012 -5.45786,-4.05017 -7.6217,-2.96996 -24.2244,-10.05992 -32.04691,-10.21075 -7.17713,-0.13839 -14.00687,3.47174 -21.16901,3.9556 -7.06294,0.47716 -14.15737,-0.47012 -21.20898,-1.09261 -6.97586,-0.6158 -13.88012,-3.3496 -20.84496,-2.61976 -5.12688,0.53725 -9.42015,4.18987 -14.13022,6.2848 -11.47116,-5.9359 -1.04821,6.17831 -3.11232,5.61436 -10.59042,-2.89346 -24.75265,-10.56193 -33.87267,-15.97107 -8.18959,-4.8573 -15.64628,-10.97211 -24.149659,-15.25642 -8.025233,-4.0434 -16.793706,-6.40198 -25.190558,-9.60297 5.611109,-7.2223 -40.053598,6.12006 -31.829366,14.35588 7.029996,7.0399 19.416692,4.34926 29.125038,6.52389 C 3.54308,466.8989 -37.840787,373.49337 28.206898,344.23056 l 0,0 c 10.218923,2.38822 21.765665,1.58988 30.656771,7.16467 10.212508,6.40331 -0.310535,32.1619 23.450013,27.52774 8.502864,1.82463 16.815652,5.72039 25.508588,5.47388 8.58158,-0.24336 16.467,-4.8906 24.81333,-6.90092 4.13778,-0.99664 8.7638,-0.25092 12.59297,-2.10886 2.9123,-1.41306 3.43088,-6.28514 6.5429,-7.17598 11.96657,-3.42552 15.72857,1.54741 23.91057,7.31979 2.22406,3.85522 3.1333,8.86648 6.67217,11.56567 4.10094,3.12789 9.7337,3.45284 14.7245,4.75414 24.9789,6.51295 9.60644,2.75714 36.6462,-0.56204 14.20017,-1.74309 28.76452,0.5763 42.7781,-3.49023 7.45591,-1.2778 14.80443,-3.69212 22.36772,-3.8334 7.19747,-0.13445 22.0142,10.18724 21.38452,3.01611 -0.65317,-7.43859 -14.97057,-9.20042 -21.63113,-5.82462 -5.99686,3.03942 -8.24584,13.43057 -5.28242,19.46535 6.09385,12.40963 37.53887,-5.26793 38.83469,-5.79762 24.01315,-10.48997 35.49553,-14.53232 58.39221,-28.88756 10.49935,-6.58265 21.41957,-12.88129 30.34395,-21.47914 9.97948,-9.61433 15.7939,-23.00886 25.79249,-32.60332 11.19821,-10.7456 27.95074,-15.35926 41.99511,-20.44871 2.87482,-0.84867 10.36236,-4.98826 8.62446,-2.54603 -3.20778,4.50782 -13.39935,3.99724 -13.59181,9.52655 -0.15562,4.471 9.1038,4.44733 13.17032,2.58252 4.71252,-2.16105 6.67329,-8.06347 8.94452,-12.72389 3.60646,-7.40026 2.96787,-16.3889 6.72979,-23.76224 1.02266,-9.61867 -0.84788,-2.08817 5.34183,-11.12694 1.425,-2.08091 2.19056,-4.56328 3.59909,-6.65538 1.81868,-2.70127 4.75419,-4.68395 6.04743,-7.67259 1.59854,-3.69418 1.61575,-7.88668 2.39426,-11.83588 0.72144,-3.65968 1.40369,-7.32698 2.10553,-10.99047 1.58365,-3.9795 4.38059,-7.67151 4.75093,-11.9385 0.44383,-5.11363 -1.74506,-10.11965 -2.3945,-15.21125 -1.24327,-9.74717 -3.72969,-31.69926 -0.46363,-40.25091 4.02141,-10.52942 12.23695,-18.93226 18.43389,-28.34705 1.43124,-2.17443 -2.75723,4.41637 -4.13584,6.62455 -1.41658,16.65311 -5.55637,33.29724 -4.24974,49.95934 0.2161,2.75571 6.47904,3.05898 8.24034,0.92862 2.57748,-3.11755 2.34893,-8.2842 0.99131,-12.09463 -5.53677,-15.54017 -15.27634,-15.18123 -28.5204,-21.7376 -6.31298,-3.12519 -12.38743,-6.71072 -18.58114,-10.06608 -4.47918,-3.63117 -8.96748,-7.25113 -13.43755,-10.89352 -6.95391,-5.66632 -13.80064,-11.05589 -20.16505,-17.39948 -9.6867,-9.655022 -18.8003,-22.075456 -31.16149,-28.63715 -8.99014,-4.772239 -19.28335,-6.522275 -28.92502,-9.783412 -11.15891,-0.301299 -22.34707,-1.76586 -33.47672,-0.903898 -16.00629,1.239646 -34.52259,5.844992 -48.37216,14.793389 -2.00617,1.296211 -2.18848,4.347942 -3.90732,6.006385 -5.61215,5.414915 -4.99652,3.227493 -6.309,-0.896459 -9.91913,-14.367615 1.03263,-3.233865 -15.2191,-6.155774 -4.24504,-0.763218 -7.60869,-4.356264 -11.82982,-5.242216 -4.22703,-0.887191 -8.69095,-0.633267 -12.95732,0.03976 -30.26755,4.774758 3.90152,4.895457 -26.44242,3.440035 -4.09384,0.543769 -8.2076,0.954295 -12.28152,1.631306 -7.52312,1.250205 -11.5999,2.9506 -19.35632,3.702684 -2.98477,0.289411 -6.00464,-0.128524 -8.99591,0.08337 -1.02899,0.07289 -2.20974,1.431299 -2.99834,0.766284 -0.64306,-0.542285 1.00274,-1.350897 1.50411,-2.026345 0.85077,-1.064454 3.9094,-3.070293 2.5523,-3.193362 -1.41424,-0.128251 -1.86603,2.14255 -2.85008,3.166357 -0.90534,0.941913 -1.71507,2.022049 -2.81478,2.72737 -1.90187,1.219804 -4.09144,1.922605 -6.08709,2.982032 -12.84499,6.818978 -5.72251,5.971718 -18.51913,4.359045 -2.90953,0.354977 -12.55393,1.680255 -16.44459,1.723766 -2.57416,0.02879 -5.14871,-0.142862 -7.71547,-0.339988 -3.03063,-0.232751 -6.04284,-1.232586 -9.06915,-0.94906 -7.33617,0.687303 -12.90015,3.760846 -19.40088,6.680306 -3.4648,-0.782624 -6.8438,-2.45073 -10.3944,-2.347871 -2.42978,0.07039 -4.32792,2.385422 -6.71516,2.843523 -0.74056,0.14211 -23.88183,1.60341 -24.854537,1.54269 -4.740713,-0.29591 -9.351359,-2.949395 -14.059538,-2.320923 -4.839069,0.645943 -8.912368,3.988113 -13.368552,5.982173 -58.2719659,0 -58.2719659,-82.409008 0,-82.409008 z" opacity=".8" transform="translate(0,2357.0866)"/><path id="path3043" fill="#00f" fill-opacity="1" stroke="#000" stroke-dasharray="none" stroke-linecap="round" stroke-linejoin="miter" stroke-miterlimit="4" stroke-opacity="1" stroke-width="10" d="m 291.41225,2831.2019 c 5.19642,18.7367 2.65551,15.2594 16.13763,33.5902 5.10807,6.9451 9.7046,14.5859 16.44177,19.9652 5.81204,4.6407 13.33004,6.6483 20.26262,9.3418 5.99572,2.3295 12.35054,3.6156 18.4377,5.6944 5.32413,1.8183 10.5194,3.994 15.7791,5.991 6.63538,11.0937 21.66411,13.6097 29.0527,23.6858 5.08252,6.9312 6.13228,16.1056 10.1554,23.7009 4.21979,7.9666 19.4312,30.9806 27.83599,36.4106 5.28958,3.4174 12.1388,3.3589 18.2082,5.0383 4.33505,-0.5348 9.09956,0.3512 13.00514,-1.6046 1.81262,-0.9077 1.63784,-3.7884 1.79975,-5.8092 0.30058,-3.7513 2.55406,-8.9891 -0.43033,-11.2817 -3.63635,-2.7935 -9.20419,-0.2071 -13.75091,0.3877 -2.26838,0.2968 4.64109,-0.1022 6.84375,0.5159 6.54499,1.8364 12.81763,4.5327 19.22644,6.7991 49.49016,43.4763 -16.14202,-10.5442 29.21447,17.072 2.77284,1.6883 3.28499,5.6736 5.5363,8.0125 2.76269,2.8702 5.54587,6.2533 9.346,7.449 5.09793,1.604 13.08924,-1.1984 18.24733,-2.6882 -0.0167,0.797 -0.80432,2.1329 -0.0501,2.3911 2.57172,0.8802 5.4298,0.2687 8.1457,0.3798 2.24274,0.092 4.49278,0.046 6.72995,0.2288 0.9525,0.078 1.85806,0.548 2.81372,0.5501 12.8306,0.028 -0.16743,-1.8669 14.01071,0.991 0.85282,1.1183 1.27963,2.7697 2.55846,3.3549 5.14383,2.354 11.7836,1.6132 16.15187,5.2073 3.15974,2.5998 2.04415,8.056 4.19705,11.5356 0.76714,1.2399 2.63199,2.1993 4.01459,1.7365 1.73635,-0.5812 4.64749,-2.8325 3.48432,-4.2466 -1.91604,-2.3295 -5.85292,-1.4606 -8.77938,-2.1909 -0.19883,0.6623 -1.2822,2.0759 -0.59649,1.9868 2.90556,-0.3774 5.38026,-3.4778 8.26819,-2.9832 1.9481,0.3336 1.9365,3.4834 3.25412,4.9566 1.73829,1.9436 3.305,4.5846 5.8369,5.2079 1.47157,0.3622 2.48977,-4.048 3.49215,-2.9113 3.73017,4.2298 4.9137,10.1526 7.37055,15.229 2.07673,-11.328 11.62237,7.2583 9.85168,4.164 -2.49605,-4.362 -5.31963,-8.5539 -8.44183,-12.4921 -2.17779,-2.7469 3.73118,5.9356 5.59678,8.9035 55.95911,45.6513 -8.60158,124.7894 -64.56069,79.1381 l 0,0 c 2.28833,1.8984 9.24371,7.4791 6.86498,5.6952 -4.77628,-3.5818 -10.47886,-6.317 -14.06197,-11.0923 -1.27696,-1.7019 5.01602,2.4631 6.33358,0.7925 1.27426,-1.6157 -1.67397,-3.7597 -2.51094,-5.6396 10.96745,12.1507 1.78389,1.6141 0.43346,1.3595 -1.072,-0.2022 2.78628,13.1142 1.2571,-2.5276 -0.23108,-2.3638 -3.95859,23.4473 -6.6721,-2.5 -8.42547,-5.9628 -17.0832,-14.085 -28.33741,-13.1288 -0.4135,0.035 0.30655,0.9193 0.70811,1.024 3.32133,0.8659 6.70574,1.763 10.13787,1.8037 0.75088,0.01 -0.98464,-1.1341 -1.47695,-1.7011 0.19207,-0.4942 1.09405,-1.3686 0.57623,-1.4827 -3.22224,-0.7103 -5.93706,7.5314 -9.84684,1.0124 -1.91562,-0.6281 -12.68265,-21.6347 -18.41023,-14.114 -11.11252,-5.6791 -9.982,-4.5492 -20.12416,-11.9585 -11.95455,-8.7333 -11.22446,-11.0258 -26.00745,-14.31 -1.44664,-0.3214 -3.37732,-0.1624 -4.33985,0.9644 -0.6872,0.8044 0.61424,2.0248 0.92136,3.0373 2.31328,0.7857 4.97968,0.899 6.93987,2.3572 0.72432,0.5389 0.76038,2.8197 -0.13506,2.705 -11.65429,-1.4932 -20.01625,-4.752 -29.07632,-11.457 -4.57336,-3.3846 -9.68423,-6.4278 -13.02059,-11.0365 -3.71475,-5.1314 -5.05604,-11.6171 -7.58406,-17.4257 -3.82383,-4.7974 -26.05709,-32.9209 -29.10866,-35.6755 -13.54465,-12.2266 -23.13535,-13.403 -37.21491,-23.4643 -3.98676,-2.849 -7.14961,-6.7078 -10.87417,-9.892 -3.7275,-3.1866 -7.6476,-6.1408 -11.47138,-9.2113 -11.5431,-14.3206 -9.31143,-12.3141 -23.12448,-26.0443 -5.39794,-5.3655 -10.38027,-11.2485 -16.46963,-15.8143 -12.6188,-9.4615 -30.44531,-18.0708 -46.0428,-20.9913 -8.08721,-1.5142 -16.4396,-0.723 -24.65941,-1.0846 -44.97728,-43.6281 16.72222,-107.2356 61.69948,-63.6074 z" opacity=".8"/></g></svg>